<svg xmlns="http://www.w3.org/2000/svg" viewBox="0 0 300.97 39.59"><g id="Layer_2" data-name="Layer 2"><g id="Layer_1-2" data-name="Layer 1"><polygon points="11.38 32.52 11.38 7.11 12.35 7.11 12.35 31.55 23.61 31.55 23.61 32.52 11.38 32.52"/><path d="M12.22,7.23V31.67H23.48v.72h-12V7.23h.72M12.47,7H11.25V32.64H23.73V31.42H12.47V7Z"/><path d="M38.25,32.63a13.24,13.24,0,0,1-11.31-6.44,12.47,12.47,0,0,1,0-12.81,13,13,0,0,1,4.8-4.67,13.18,13.18,0,0,1,13,0,13,13,0,0,1,4.79,4.67,12.52,12.52,0,0,1,0,12.81,13.21,13.21,0,0,1-11.3,6.44Zm-6-23.07a12.2,12.2,0,0,0-4.39,4.32,11.29,11.29,0,0,0-1.66,5.88,11.5,11.5,0,0,0,1.66,6,12.07,12.07,0,0,0,20.83,0,11.4,11.4,0,0,0,1.66-6,11.22,11.22,0,0,0-1.66-5.87A12.13,12.13,0,0,0,32.39,9.46Z"/><path d="M38.25,7.12a13.12,13.12,0,0,1,11.2,6.32,12.42,12.42,0,0,1,0,12.68,13,13,0,0,1-22.4,0,12.39,12.39,0,0,1,0-12.69A12.84,12.84,0,0,1,31.8,8.82a13,13,0,0,1,6.45-1.7m-6.1,2.33h0a12.32,12.32,0,0,0-4.44,4.37,11.54,11.54,0,0,0,0,12,12.21,12.21,0,0,0,21.05,0,11.54,11.54,0,0,0,0-12A12.25,12.25,0,0,0,32.15,9.45m6.1-2.58A13.42,13.42,0,0,0,31.67,8.6a13.25,13.25,0,0,0-4.84,4.71,12.64,12.64,0,0,0,0,13,13.29,13.29,0,0,0,22.83,0,12.62,12.62,0,0,0,0-12.94A13.17,13.17,0,0,0,44.82,8.6a13.38,13.38,0,0,0-6.57-1.73ZM32.51,9.54a12,12,0,0,1,16,4.41,11,11,0,0,1,1.64,5.8,11.24,11.24,0,0,1-1.64,5.9A12,12,0,0,1,32.31,30a12.09,12.09,0,0,1-4.37-4.3,11.29,11.29,0,0,1-1.64-5.9A11.14,11.14,0,0,1,27.94,14a12,12,0,0,1,4.34-4.28l.23-.13Z"/><polygon points="65.08 32.49 54.47 7.13 55.56 7.13 65.56 31.25 75.51 7.13 76.64 7.13 66.03 32.49 65.08 32.49"/><path d="M76.46,7.25,66,32.37h-.79L54.65,7.26h.83L65.55,31.57l10-24.32h.87M76.83,7h-1.4l-.07.16L65.55,30.92,55.71,7.16,55.65,7H54.28l.14.35L64.93,32.47l.06.15h1.12l.07-.15L76.69,7.35,76.83,7Z"/><polygon points="81.29 32.51 81.29 7.12 97.26 7.12 97.26 8.08 82.26 8.08 82.26 18.93 95.61 18.93 95.61 19.9 82.26 19.9 82.26 31.54 97.77 31.54 97.77 32.51 81.29 32.51"/><path d="M97.14,7.24V8h-15v11.1H95.48v.72H82.14V31.66h15.5v.72H81.42V7.24H97.14M97.39,7H81.17V32.63H97.89V31.41H82.39V20H95.73V18.81H82.39V8.21h15V7Z"/><polygon points="108.96 32.52 108.96 8.08 100.33 8.08 100.33 7.11 118.56 7.11 118.56 8.08 109.93 8.08 109.93 32.52 108.96 32.52"/><path d="M118.44,7.23V8h-8.63V32.39h-.72V8h-8.64V7.23h18m.25-.25H100.2V8.2h8.64V32.64h1.22V8.2h8.63V7Z"/><polygon points="130.1 32.52 130.1 8.08 121.46 8.08 121.46 7.11 139.69 7.11 139.69 8.08 131.03 8.08 131.03 32.52 130.1 32.52"/><path d="M139.57,7.23V8H130.9V32.39h-.68V8h-8.64V7.23h18m.25-.25H121.33V8.2H130V32.64h1.18V8.2h8.67V7Z"/><path d="M.12,39.46V.13H300.85V39.46ZM300,38.6V1H1V38.6Z"/><path d="M300.72.25V39.34H.25V.25H300.72M.89,38.72H300.08V.87H.89V38.72M301,0H0V39.59H301V0ZM1.14,1.12H299.83V38.47H1.14V1.12Z"/><path d="M167.62,32.64a12,12,0,0,1-4.75-1A11.72,11.72,0,0,1,158.93,29l-.08-.08.62-.69.09.1a10.06,10.06,0,0,0,3.59,2.41,11.39,11.39,0,0,0,4.46.9h.49a9.43,9.43,0,0,0,5.13-1.51,4.56,4.56,0,0,0,2.07-3.92,4.78,4.78,0,0,0-1-3.1,6.62,6.62,0,0,0-2.39-1.84A31.8,31.8,0,0,0,168,19.89a37.05,37.05,0,0,1-4.09-1.5,7.08,7.08,0,0,1-2.62-2.08,5.72,5.72,0,0,1-1.07-3.6,4.87,4.87,0,0,1,2.25-4.18A10.13,10.13,0,0,1,167.9,7l.51,0a13.37,13.37,0,0,1,3.6.5,11.59,11.59,0,0,1,3.14,1.38l.11.06-.5.79-.1-.07a9.9,9.9,0,0,0-2.9-1.23A12.77,12.77,0,0,0,168.4,8H168a9.2,9.2,0,0,0-4.79,1.35,4,4,0,0,0-1.94,3.47,4.64,4.64,0,0,0,.95,3.05,6.16,6.16,0,0,0,2.33,1.78A37.92,37.92,0,0,0,168.33,19a34.4,34.4,0,0,1,4.16,1.5,6.88,6.88,0,0,1,2.65,2.07,5.85,5.85,0,0,1,1.09,3.68,5.59,5.59,0,0,1-1,3.41,6.72,6.72,0,0,1-3,2.23,12.13,12.13,0,0,1-4.3.79Z"/><path d="M167.9,7.1h.5a14,14,0,0,1,3.58.5A12,12,0,0,1,175.09,9l-.36.58a10.21,10.21,0,0,0-2.94-1.26,13.3,13.3,0,0,0-3.39-.44l-.45,0a9.39,9.39,0,0,0-4.86,1.37,4.13,4.13,0,0,0-2,3.58,4.71,4.71,0,0,0,1,3.13,6.38,6.38,0,0,0,2.39,1.82,36.42,36.42,0,0,0,3.84,1.36,35.83,35.83,0,0,1,4.14,1.49,6.74,6.74,0,0,1,2.6,2,5.63,5.63,0,0,1,1.06,3.59,5.45,5.45,0,0,1-1,3.34,6.69,6.69,0,0,1-3,2.2,12.12,12.12,0,0,1-4.26.77h-.24a12.24,12.24,0,0,1-4.7-1A11.62,11.62,0,0,1,159,29l.45-.51a10.19,10.19,0,0,0,3.63,2.45,11.82,11.82,0,0,0,4.51.9h.49a9.68,9.68,0,0,0,5.2-1.52,4.71,4.71,0,0,0,2.12-4,4.83,4.83,0,0,0-1-3.17A7,7,0,0,0,172,21.2a32.08,32.08,0,0,0-3.91-1.43,36.89,36.89,0,0,1-4.08-1.5,6.89,6.89,0,0,1-2.57-2,5.52,5.52,0,0,1-1-3.53,4.74,4.74,0,0,1,2.19-4.07A10,10,0,0,1,167.9,7.1m0-.25a10.24,10.24,0,0,0-5.46,1.58,4.94,4.94,0,0,0-2.31,4.29,5.75,5.75,0,0,0,1.09,3.66,7.25,7.25,0,0,0,2.67,2.12A34.77,34.77,0,0,0,168,20a32.27,32.27,0,0,1,3.88,1.43,6.53,6.53,0,0,1,2.33,1.81,4.58,4.58,0,0,1,1,3,4.47,4.47,0,0,1-2,3.84,9.34,9.34,0,0,1-5.06,1.48h-.47a11.52,11.52,0,0,1-4.43-.88,10,10,0,0,1-3.55-2.39l-.18-.19-.18.2-.46.5-.16.17.17.17a11.91,11.91,0,0,0,4,2.65,12.3,12.3,0,0,0,4.79,1h.24a12.22,12.22,0,0,0,4.35-.79,6.87,6.87,0,0,0,3.07-2.27,5.73,5.73,0,0,0,1.07-3.5,5.92,5.92,0,0,0-1.1-3.74,7.1,7.1,0,0,0-2.71-2.12,36.35,36.35,0,0,0-4.17-1.5,36.83,36.83,0,0,1-3.82-1.35,6.13,6.13,0,0,1-2.29-1.75,4.48,4.48,0,0,1-.91-3,3.87,3.87,0,0,1,1.87-3.37A9.1,9.1,0,0,1,168,8.08l.44,0a13,13,0,0,1,3.34.44,9.54,9.54,0,0,1,2.86,1.22l.21.13.14-.21.36-.58.13-.21-.21-.13A12,12,0,0,0,172,7.37a14,14,0,0,0-3.64-.51Z"/><polygon points="187.86 32.52 187.86 8.08 179.2 8.08 179.2 7.11 197.44 7.11 197.44 8.08 188.79 8.08 188.79 32.52 187.86 32.52"/><path d="M197.32,7.23V8h-8.66V32.39H188V8h-8.65V7.23h18m.25-.25H179.08V8.2h8.65V32.64h1.18V8.2h8.66V7Z"/><path d="M213.81,32.56a10,10,0,0,1-7.45-2.7c-1.75-1.79-2.62-4.36-2.58-7.64V7.06h1V22.22a9.52,9.52,0,0,0,2.4,6.93,10.39,10.39,0,0,0,13.4,0,9.51,9.51,0,0,0,2.39-6.92V7.06h1V22.22c0,3.28-.89,5.85-2.64,7.64A10,10,0,0,1,213.81,32.56Z"/><path d="M223.78,7.19v15q0,4.89-2.61,7.56t-7.36,2.66q-4.76,0-7.36-2.66c-1.73-1.78-2.59-4.3-2.55-7.56v-15h.72v15a9.63,9.63,0,0,0,2.43,7,9,9,0,0,0,6.79,2.48h0a9.06,9.06,0,0,0,6.79-2.48,9.61,9.61,0,0,0,2.43-7v-15h.72m.25-.25h-1.22V22.23a9.47,9.47,0,0,1-2.36,6.84,10.3,10.3,0,0,1-13.22,0,9.43,9.43,0,0,1-2.36-6.85V6.94h-1.22V22.22c0,3.31.85,5.92,2.62,7.73s4.32,2.74,7.54,2.74,5.76-.92,7.54-2.74S224,25.54,224,22.22V6.94Z"/><path d="M230.11,32.49V7.13h10.18a12.91,12.91,0,0,1,6.34,1.67,13.07,13.07,0,0,1,4.74,4.63,12.33,12.33,0,0,1,0,12.73,13.07,13.07,0,0,1-4.74,4.63,12.9,12.9,0,0,1-6.4,1.7Zm10-1a12,12,0,0,0,6-1.6l.18-.11h0a12,12,0,0,0,4.22-4.16,11.43,11.43,0,0,0,0-11.73,12.19,12.19,0,0,0-10.39-5.87h-9.08V31.53Z"/><path d="M240.29,7.25a12.71,12.71,0,0,1,6.28,1.66,12.93,12.93,0,0,1,4.7,4.59,12.21,12.21,0,0,1,0,12.59,12.94,12.94,0,0,1-11,6.28h-10V7.25h10M231,31.66h9.22a12,12,0,0,0,6-1.62h0a12.21,12.21,0,0,0,4.45-4.32,11.55,11.55,0,0,0,0-11.85A12.26,12.26,0,0,0,240.16,8H231V31.66M240.29,7H230V32.62h10.24a13,13,0,0,0,6.46-1.72,13.19,13.19,0,0,0,4.79-4.68,12.46,12.46,0,0,0,0-12.85,13.19,13.19,0,0,0-4.79-4.68A13.05,13.05,0,0,0,240.29,7Zm-9.08,1.2h8.92A12.07,12.07,0,0,1,250.44,14a11.26,11.26,0,0,1,0,11.59,11.72,11.72,0,0,1-4.05,4l-.3.17a11.82,11.82,0,0,1-5.91,1.59h-9V8.2Z"/><rect x="259.04" y="7.13" width="0.97" height="25.37"/><path d="M259.88,7.25V32.37h-.72V7.25h.72m.25-.25h-1.22V32.62h1.22V7Z"/><path d="M279.46,32.63a13.08,13.08,0,0,1-11.26-6.44,12.52,12.52,0,0,1,0-12.81A13,13,0,0,1,273,8.71a13.18,13.18,0,0,1,13,0,13,13,0,0,1,4.76,4.67,12.52,12.52,0,0,1,0,12.81,13.08,13.08,0,0,1-11.27,6.44Zm-6-23.07A12.23,12.23,0,0,0,269,13.89a11.16,11.16,0,0,0-1.64,5.87A11.32,11.32,0,0,0,269,25.7a12.12,12.12,0,0,0,20.86,0,11.41,11.41,0,0,0,1.64-5.94,11.2,11.2,0,0,0-1.63-5.89,12.23,12.23,0,0,0-4.42-4.33,12.09,12.09,0,0,0-12,0Z"/><path d="M279.46,7.12a13.1,13.1,0,0,1,6.45,1.7,12.83,12.83,0,0,1,4.71,4.63,12.37,12.37,0,0,1,0,12.68,13,13,0,0,1-22.31,0,12.37,12.37,0,0,1,0-12.68A12.83,12.83,0,0,1,273,8.82a13.09,13.09,0,0,1,6.44-1.7m0,24.66a12.27,12.27,0,0,0,10.54-6,11.58,11.58,0,0,0,1.66-6,11.4,11.4,0,0,0-1.66-6,12.24,12.24,0,0,0-16.61-4.37v0a12.24,12.24,0,0,0-4.46,4.38,11.35,11.35,0,0,0-1.67,5.93,11.51,11.51,0,0,0,1.66,6,12.27,12.27,0,0,0,10.54,6m0-24.91a13.31,13.31,0,0,0-6.57,1.74,13.06,13.06,0,0,0-4.8,4.71,12.65,12.65,0,0,0,0,12.93,13.2,13.2,0,0,0,22.75,0,12.65,12.65,0,0,0,0-12.93A13.06,13.06,0,0,0,286,8.61a13.32,13.32,0,0,0-6.58-1.74Zm-5.83,2.71a11.93,11.93,0,0,1,11.78.07,12.11,12.11,0,0,1,4.37,4.28,11.1,11.1,0,0,1,1.62,5.83,11.31,11.31,0,0,1-1.63,5.88,12,12,0,0,1-20.65,0,11.3,11.3,0,0,1-1.62-5.88,11.07,11.07,0,0,1,1.63-5.8,12.06,12.06,0,0,1,4.37-4.29l.13-.07v0Z"/></g></g></svg>